%TF.GenerationSoftware,KiCad,Pcbnew,8.0.7*%
%TF.CreationDate,2024-12-17T11:32:19+05:30*%
%TF.ProjectId,SQR Wave Generator,53515220-5761-4766-9520-47656e657261,rev?*%
%TF.SameCoordinates,Original*%
%TF.FileFunction,Copper,L2,Bot*%
%TF.FilePolarity,Positive*%
%FSLAX46Y46*%
G04 Gerber Fmt 4.6, Leading zero omitted, Abs format (unit mm)*
G04 Created by KiCad (PCBNEW 8.0.7) date 2024-12-17 11:32:19*
%MOMM*%
%LPD*%
G01*
G04 APERTURE LIST*
G04 Aperture macros list*
%AMRoundRect*
0 Rectangle with rounded corners*
0 $1 Rounding radius*
0 $2 $3 $4 $5 $6 $7 $8 $9 X,Y pos of 4 corners*
0 Add a 4 corners polygon primitive as box body*
4,1,4,$2,$3,$4,$5,$6,$7,$8,$9,$2,$3,0*
0 Add four circle primitives for the rounded corners*
1,1,$1+$1,$2,$3*
1,1,$1+$1,$4,$5*
1,1,$1+$1,$6,$7*
1,1,$1+$1,$8,$9*
0 Add four rect primitives between the rounded corners*
20,1,$1+$1,$2,$3,$4,$5,0*
20,1,$1+$1,$4,$5,$6,$7,0*
20,1,$1+$1,$6,$7,$8,$9,0*
20,1,$1+$1,$8,$9,$2,$3,0*%
G04 Aperture macros list end*
%TA.AperFunction,SMDPad,CuDef*%
%ADD10RoundRect,0.250000X-0.337500X-0.475000X0.337500X-0.475000X0.337500X0.475000X-0.337500X0.475000X0*%
%TD*%
%TA.AperFunction,ComponentPad*%
%ADD11R,1.700000X1.700000*%
%TD*%
%TA.AperFunction,ComponentPad*%
%ADD12O,1.700000X1.700000*%
%TD*%
%TA.AperFunction,SMDPad,CuDef*%
%ADD13RoundRect,0.250000X-0.475000X0.337500X-0.475000X-0.337500X0.475000X-0.337500X0.475000X0.337500X0*%
%TD*%
%TA.AperFunction,ComponentPad*%
%ADD14R,2.600000X2.600000*%
%TD*%
%TA.AperFunction,ComponentPad*%
%ADD15C,2.600000*%
%TD*%
%TA.AperFunction,ViaPad*%
%ADD16C,0.600000*%
%TD*%
%TA.AperFunction,Conductor*%
%ADD17C,0.200000*%
%TD*%
%TA.AperFunction,Conductor*%
%ADD18C,0.400000*%
%TD*%
G04 APERTURE END LIST*
D10*
%TO.P,C1,1*%
%TO.N,Net-(U1-THR)*%
X219430600Y-53594000D03*
%TO.P,C1,2*%
%TO.N,GND*%
X221505600Y-53594000D03*
%TD*%
D11*
%TO.P,J2,1,Pin_1*%
%TO.N,/VCC*%
X212217000Y-55575200D03*
D12*
%TO.P,J2,2,Pin_2*%
%TO.N,GND*%
X212217000Y-58115200D03*
%TO.P,J2,3,Pin_3*%
%TO.N,/VOUT*%
X212217000Y-60655200D03*
%TD*%
D13*
%TO.P,C3,1*%
%TO.N,/VCC*%
X213334600Y-52023100D03*
%TO.P,C3,2*%
%TO.N,GND*%
X213334600Y-54098100D03*
%TD*%
D14*
%TO.P,J1,1,Pin_1*%
%TO.N,/VCC*%
X214096600Y-45593000D03*
D15*
%TO.P,J1,2,Pin_2*%
%TO.N,GND*%
X219176600Y-45593000D03*
%TD*%
D13*
%TO.P,C2,1*%
%TO.N,/VCC*%
X217297000Y-52023100D03*
%TO.P,C2,2*%
%TO.N,GND*%
X217297000Y-54098100D03*
%TD*%
D16*
%TO.N,Net-(U1-THR)*%
X217601800Y-55400400D03*
X216331800Y-60350400D03*
%TO.N,GND*%
X221505600Y-53594000D03*
X216027000Y-58089800D03*
X221030800Y-51511200D03*
X211582000Y-53416200D03*
%TO.N,/VCC*%
X215061800Y-55400400D03*
X218871800Y-60350400D03*
%TD*%
D17*
%TO.N,Net-(U1-THR)*%
X217624200Y-55400400D02*
X217601800Y-55400400D01*
D18*
X219430600Y-53594000D02*
X217624200Y-55400400D01*
X217601800Y-59080400D02*
X216331800Y-60350400D01*
X217601800Y-55400400D02*
X217601800Y-59080400D01*
D17*
%TO.N,GND*%
X217297000Y-54098100D02*
X219883900Y-51511200D01*
X219883900Y-51511200D02*
X221030800Y-51511200D01*
X213334600Y-54098100D02*
X212263900Y-54098100D01*
X212263900Y-54098100D02*
X211582000Y-53416200D01*
D18*
%TO.N,/VCC*%
X213334600Y-52023100D02*
X215061800Y-53750300D01*
X214096600Y-45593000D02*
X214096600Y-51261100D01*
X215061800Y-55400400D02*
X212391800Y-55400400D01*
X214096600Y-51261100D02*
X213334600Y-52023100D01*
X215061800Y-59928929D02*
X216083271Y-60950400D01*
D17*
X216789000Y-52023100D02*
X217297000Y-52023100D01*
X212391800Y-55400400D02*
X212217000Y-55575200D01*
D18*
X216083271Y-60950400D02*
X218271800Y-60950400D01*
X215061800Y-53750300D02*
X215061800Y-55400400D01*
X218271800Y-60950400D02*
X218871800Y-60350400D01*
X215061800Y-53750300D02*
X216789000Y-52023100D01*
X215061800Y-55400400D02*
X215061800Y-59928929D01*
%TD*%
%TA.AperFunction,Conductor*%
%TO.N,GND*%
G36*
X217240039Y-53617785D02*
G01*
X217285794Y-53670589D01*
X217297000Y-53722100D01*
X217297000Y-54474100D01*
X217277315Y-54541139D01*
X217224511Y-54586894D01*
X217173000Y-54598100D01*
X216085743Y-54598100D01*
X216137641Y-54754719D01*
X216137643Y-54754724D01*
X216229684Y-54903945D01*
X216353654Y-55027915D01*
X216502875Y-55119956D01*
X216502880Y-55119958D01*
X216669302Y-55175105D01*
X216669311Y-55175106D01*
X216695236Y-55177755D01*
X216759928Y-55204150D01*
X216800081Y-55261330D01*
X216805857Y-55314995D01*
X216799243Y-55373695D01*
X216796236Y-55400396D01*
X216796235Y-55400403D01*
X216816430Y-55579649D01*
X216816431Y-55579654D01*
X216876012Y-55749925D01*
X216882292Y-55759919D01*
X216901300Y-55825893D01*
X216901300Y-58738880D01*
X216881615Y-58805919D01*
X216864981Y-58826561D01*
X216132509Y-59559032D01*
X216085784Y-59588392D01*
X215982276Y-59624611D01*
X215982272Y-59624613D01*
X215952270Y-59643465D01*
X215885033Y-59662464D01*
X215818199Y-59642095D01*
X215772985Y-59588827D01*
X215762300Y-59538470D01*
X215762300Y-55825893D01*
X215781308Y-55759919D01*
X215787587Y-55749925D01*
X215787586Y-55749925D01*
X215787589Y-55749922D01*
X215847168Y-55579655D01*
X215867365Y-55400400D01*
X215857742Y-55314995D01*
X215847169Y-55221150D01*
X215847166Y-55221137D01*
X215787590Y-55050879D01*
X215781306Y-55040878D01*
X215762300Y-54974907D01*
X215762300Y-54091819D01*
X215781985Y-54024780D01*
X215798619Y-54004138D01*
X216168338Y-53634419D01*
X216229661Y-53600934D01*
X216256019Y-53598100D01*
X217173000Y-53598100D01*
X217240039Y-53617785D01*
G37*
%TD.AperFunction*%
%TA.AperFunction,Conductor*%
G36*
X222505339Y-40245785D02*
G01*
X222551094Y-40298589D01*
X222562300Y-40350100D01*
X222562300Y-52478177D01*
X222542615Y-52545216D01*
X222489811Y-52590971D01*
X222420653Y-52600915D01*
X222357097Y-52571890D01*
X222350619Y-52565858D01*
X222311445Y-52526684D01*
X222162220Y-52434641D01*
X222005600Y-52382742D01*
X222005600Y-54805256D01*
X222162219Y-54753358D01*
X222162224Y-54753356D01*
X222311445Y-54661315D01*
X222350619Y-54622142D01*
X222411942Y-54588657D01*
X222481634Y-54593641D01*
X222537567Y-54635513D01*
X222561984Y-54700977D01*
X222562300Y-54709823D01*
X222562300Y-62596100D01*
X222542615Y-62663139D01*
X222489811Y-62708894D01*
X222438300Y-62720100D01*
X210733300Y-62720100D01*
X210666261Y-62700415D01*
X210620506Y-62647611D01*
X210609300Y-62596100D01*
X210609300Y-60655199D01*
X210861341Y-60655199D01*
X210861341Y-60655200D01*
X210881936Y-60890603D01*
X210881938Y-60890613D01*
X210943094Y-61118855D01*
X210943096Y-61118859D01*
X210943097Y-61118863D01*
X211042965Y-61333030D01*
X211042967Y-61333034D01*
X211151281Y-61487721D01*
X211178505Y-61526601D01*
X211345599Y-61693695D01*
X211442384Y-61761465D01*
X211539165Y-61829232D01*
X211539167Y-61829233D01*
X211539170Y-61829235D01*
X211753337Y-61929103D01*
X211981592Y-61990263D01*
X212169918Y-62006739D01*
X212216999Y-62010859D01*
X212217000Y-62010859D01*
X212217001Y-62010859D01*
X212256234Y-62007426D01*
X212452408Y-61990263D01*
X212680663Y-61929103D01*
X212894830Y-61829235D01*
X213088401Y-61693695D01*
X213255495Y-61526601D01*
X213391035Y-61333030D01*
X213490903Y-61118863D01*
X213552063Y-60890608D01*
X213572659Y-60655200D01*
X213552063Y-60419792D01*
X213490903Y-60191537D01*
X213391035Y-59977371D01*
X213300546Y-59848138D01*
X213255494Y-59783797D01*
X213088402Y-59616706D01*
X213088401Y-59616705D01*
X212902405Y-59486469D01*
X212858781Y-59431892D01*
X212851588Y-59362393D01*
X212883110Y-59300039D01*
X212902405Y-59283319D01*
X213088082Y-59153305D01*
X213255105Y-58986282D01*
X213390601Y-58792776D01*
X213473406Y-58615200D01*
X212282826Y-58615200D01*
X212409993Y-58581125D01*
X212524007Y-58515299D01*
X212617099Y-58422207D01*
X212682925Y-58308193D01*
X212717000Y-58181026D01*
X212717000Y-58049374D01*
X212682925Y-57922207D01*
X212617099Y-57808193D01*
X212524007Y-57715101D01*
X212409993Y-57649275D01*
X212282826Y-57615200D01*
X213473406Y-57615200D01*
X213473405Y-57615199D01*
X213390599Y-57437621D01*
X213390597Y-57437617D01*
X213255113Y-57244126D01*
X213255108Y-57244120D01*
X213133053Y-57122065D01*
X213099568Y-57060742D01*
X213104552Y-56991050D01*
X213146424Y-56935117D01*
X213177400Y-56918202D01*
X213309331Y-56868996D01*
X213424546Y-56782746D01*
X213510796Y-56667531D01*
X213561091Y-56532683D01*
X213567500Y-56473073D01*
X213567500Y-56224900D01*
X213587185Y-56157861D01*
X213639989Y-56112106D01*
X213691500Y-56100900D01*
X214237300Y-56100900D01*
X214304339Y-56120585D01*
X214350094Y-56173389D01*
X214361300Y-56224900D01*
X214361300Y-59859935D01*
X214361300Y-59997923D01*
X214361300Y-59997925D01*
X214361299Y-59997925D01*
X214388218Y-60133251D01*
X214388221Y-60133261D01*
X214441022Y-60260736D01*
X214517687Y-60375474D01*
X215636725Y-61494512D01*
X215751461Y-61571176D01*
X215850061Y-61612017D01*
X215878942Y-61623980D01*
X215878943Y-61623980D01*
X215878948Y-61623982D01*
X215905816Y-61629325D01*
X215905822Y-61629326D01*
X215905862Y-61629334D01*
X215996208Y-61647305D01*
X216014277Y-61650900D01*
X216014278Y-61650900D01*
X218340796Y-61650900D01*
X218449257Y-61629325D01*
X218476128Y-61623980D01*
X218539869Y-61597577D01*
X218603607Y-61571177D01*
X218603608Y-61571176D01*
X218603611Y-61571175D01*
X218718343Y-61494514D01*
X219071092Y-61141763D01*
X219117813Y-61112407D01*
X219221322Y-61076189D01*
X219374062Y-60980216D01*
X219501616Y-60852662D01*
X219597589Y-60699922D01*
X219657168Y-60529655D01*
X219669546Y-60419796D01*
X219677365Y-60350403D01*
X219677365Y-60350396D01*
X219657169Y-60171150D01*
X219657168Y-60171145D01*
X219635161Y-60108253D01*
X219597589Y-60000878D01*
X219501616Y-59848138D01*
X219374062Y-59720584D01*
X219221323Y-59624611D01*
X219051054Y-59565031D01*
X219051049Y-59565030D01*
X218871804Y-59544835D01*
X218871796Y-59544835D01*
X218692550Y-59565030D01*
X218692545Y-59565031D01*
X218522276Y-59624611D01*
X218369537Y-59720584D01*
X218241984Y-59848137D01*
X218146012Y-60000875D01*
X218146010Y-60000878D01*
X218109793Y-60104382D01*
X218080434Y-60151108D01*
X218017962Y-60213581D01*
X217956639Y-60247066D01*
X217930280Y-60249900D01*
X217722319Y-60249900D01*
X217655280Y-60230215D01*
X217609525Y-60177411D01*
X217599581Y-60108253D01*
X217628606Y-60044697D01*
X217634638Y-60038219D01*
X218145912Y-59526945D01*
X218145914Y-59526943D01*
X218222575Y-59412211D01*
X218275380Y-59284729D01*
X218281224Y-59255349D01*
X218302300Y-59149393D01*
X218302300Y-55825893D01*
X218321308Y-55759919D01*
X218327587Y-55749926D01*
X218327590Y-55749919D01*
X218351749Y-55680873D01*
X218381108Y-55634146D01*
X219159437Y-54855818D01*
X219220760Y-54822333D01*
X219247118Y-54819499D01*
X219818102Y-54819499D01*
X219818108Y-54819499D01*
X219920897Y-54808999D01*
X220087434Y-54753814D01*
X220236756Y-54661712D01*
X220360812Y-54537656D01*
X220362852Y-54534347D01*
X220364845Y-54532555D01*
X220365293Y-54531989D01*
X220365389Y-54532065D01*
X220414794Y-54487623D01*
X220483756Y-54476395D01*
X220547840Y-54504234D01*
X220573929Y-54534339D01*
X220575781Y-54537341D01*
X220575783Y-54537344D01*
X220699754Y-54661315D01*
X220848975Y-54753356D01*
X220848980Y-54753358D01*
X221005600Y-54805256D01*
X221005600Y-52382742D01*
X220848979Y-52434641D01*
X220699754Y-52526684D01*
X220575783Y-52650655D01*
X220575779Y-52650660D01*
X220573926Y-52653665D01*
X220572118Y-52655290D01*
X220571302Y-52656323D01*
X220571125Y-52656183D01*
X220521974Y-52700385D01*
X220453011Y-52711601D01*
X220388931Y-52683752D01*
X220362853Y-52653653D01*
X220362837Y-52653628D01*
X220360812Y-52650344D01*
X220236756Y-52526288D01*
X220088172Y-52434641D01*
X220087436Y-52434187D01*
X220087431Y-52434185D01*
X220085962Y-52433698D01*
X219920897Y-52379001D01*
X219920895Y-52379000D01*
X219818110Y-52368500D01*
X219043098Y-52368500D01*
X219043080Y-52368501D01*
X218940303Y-52379000D01*
X218940300Y-52379001D01*
X218773768Y-52434185D01*
X218773761Y-52434188D01*
X218711594Y-52472533D01*
X218644202Y-52490972D01*
X218577538Y-52470049D01*
X218532770Y-52416406D01*
X218522499Y-52366997D01*
X218522499Y-51635592D01*
X218511999Y-51532803D01*
X218456814Y-51366266D01*
X218364712Y-51216944D01*
X218240656Y-51092888D01*
X218091334Y-51000786D01*
X217924797Y-50945601D01*
X217924795Y-50945600D01*
X217822010Y-50935100D01*
X216771998Y-50935100D01*
X216771980Y-50935101D01*
X216669203Y-50945600D01*
X216669200Y-50945601D01*
X216502668Y-51000785D01*
X216502663Y-51000787D01*
X216353342Y-51092889D01*
X216229289Y-51216942D01*
X216137187Y-51366263D01*
X216137186Y-51366266D01*
X216082001Y-51532803D01*
X216082001Y-51532804D01*
X216082000Y-51532804D01*
X216071500Y-51635583D01*
X216071500Y-51698580D01*
X216051815Y-51765619D01*
X216035181Y-51786261D01*
X215149480Y-52671961D01*
X215088157Y-52705446D01*
X215018465Y-52700462D01*
X214974118Y-52671961D01*
X214596418Y-52294261D01*
X214562933Y-52232938D01*
X214560099Y-52206580D01*
X214560099Y-51839620D01*
X214579784Y-51772581D01*
X214596418Y-51751939D01*
X214612126Y-51736230D01*
X214640714Y-51707643D01*
X214717375Y-51592911D01*
X214770180Y-51465428D01*
X214778989Y-51421140D01*
X214797100Y-51330096D01*
X214797100Y-47517499D01*
X214816785Y-47450460D01*
X214869589Y-47404705D01*
X214921100Y-47393499D01*
X215444471Y-47393499D01*
X215444472Y-47393499D01*
X215504083Y-47387091D01*
X215638931Y-47336796D01*
X215754146Y-47250546D01*
X215813469Y-47171301D01*
X218305403Y-47171301D01*
X218517136Y-47273268D01*
X218517140Y-47273269D01*
X218774937Y-47352790D01*
X218774943Y-47352792D01*
X219041701Y-47392999D01*
X219041710Y-47393000D01*
X219311490Y-47393000D01*
X219311498Y-47392999D01*
X219578256Y-47352792D01*
X219578262Y-47352790D01*
X219836061Y-47273269D01*
X220047797Y-47171303D01*
X219176600Y-46300106D01*
X218305403Y-47171301D01*
X215813469Y-47171301D01*
X215840396Y-47135331D01*
X215890691Y-47000483D01*
X215897100Y-46940873D01*
X215897099Y-45592995D01*
X217371553Y-45592995D01*
X217371553Y-45593004D01*
X217391713Y-45862026D01*
X217391713Y-45862028D01*
X217451742Y-46125033D01*
X217451748Y-46125052D01*
X217550306Y-46376174D01*
X217550308Y-46376178D01*
X217600089Y-46462403D01*
X218469494Y-45593000D01*
X218469494Y-45592999D01*
X218405476Y-45528981D01*
X218526600Y-45528981D01*
X218526600Y-45657019D01*
X218551579Y-45782598D01*
X218600578Y-45900890D01*
X218671712Y-46007351D01*
X218762249Y-46097888D01*
X218868710Y-46169022D01*
X218987002Y-46218021D01*
X219112581Y-46243000D01*
X219240619Y-46243000D01*
X219366198Y-46218021D01*
X219484490Y-46169022D01*
X219590951Y-46097888D01*
X219681488Y-46007351D01*
X219752622Y-45900890D01*
X219801621Y-45782598D01*
X219826600Y-45657019D01*
X219826600Y-45592999D01*
X219883706Y-45592999D01*
X219883706Y-45593000D01*
X220753109Y-46462404D01*
X220753110Y-46462404D01*
X220802890Y-46376181D01*
X220901451Y-46125052D01*
X220901457Y-46125033D01*
X220961486Y-45862028D01*
X220961486Y-45862026D01*
X220981647Y-45593004D01*
X220981647Y-45592995D01*
X220961486Y-45323973D01*
X220961486Y-45323971D01*
X220901457Y-45060966D01*
X220901451Y-45060947D01*
X220802890Y-44809818D01*
X220753109Y-44723595D01*
X219883706Y-45592999D01*
X219826600Y-45592999D01*
X219826600Y-45528981D01*
X219801621Y-45403402D01*
X219752622Y-45285110D01*
X219681488Y-45178649D01*
X219590951Y-45088112D01*
X219484490Y-45016978D01*
X219366198Y-44967979D01*
X219240619Y-44943000D01*
X219112581Y-44943000D01*
X218987002Y-44967979D01*
X218868710Y-45016978D01*
X218762249Y-45088112D01*
X218671712Y-45178649D01*
X218600578Y-45285110D01*
X218551579Y-45403402D01*
X218526600Y-45528981D01*
X218405476Y-45528981D01*
X217600089Y-44723595D01*
X217550309Y-44809818D01*
X217451748Y-45060947D01*
X217451742Y-45060966D01*
X217391713Y-45323971D01*
X217391713Y-45323973D01*
X217371553Y-45592995D01*
X215897099Y-45592995D01*
X215897099Y-44245128D01*
X215890691Y-44185517D01*
X215840396Y-44050669D01*
X215840395Y-44050668D01*
X215840393Y-44050664D01*
X215813467Y-44014696D01*
X218305402Y-44014696D01*
X219176600Y-44885894D01*
X219176601Y-44885894D01*
X220047797Y-44014697D01*
X220047796Y-44014695D01*
X219836060Y-43912730D01*
X219836062Y-43912730D01*
X219578262Y-43833209D01*
X219578256Y-43833207D01*
X219311498Y-43793000D01*
X219041701Y-43793000D01*
X218774943Y-43833207D01*
X218774937Y-43833209D01*
X218517138Y-43912730D01*
X218305402Y-44014696D01*
X215813467Y-44014696D01*
X215754147Y-43935455D01*
X215754144Y-43935452D01*
X215638935Y-43849206D01*
X215638928Y-43849202D01*
X215504082Y-43798908D01*
X215504083Y-43798908D01*
X215444483Y-43792501D01*
X215444481Y-43792500D01*
X215444473Y-43792500D01*
X215444464Y-43792500D01*
X212748729Y-43792500D01*
X212748723Y-43792501D01*
X212689116Y-43798908D01*
X212554271Y-43849202D01*
X212554264Y-43849206D01*
X212439055Y-43935452D01*
X212439052Y-43935455D01*
X212352806Y-44050664D01*
X212352802Y-44050671D01*
X212302508Y-44185517D01*
X212296101Y-44245116D01*
X212296101Y-44245123D01*
X212296100Y-44245135D01*
X212296100Y-46940870D01*
X212296101Y-46940876D01*
X212302508Y-47000483D01*
X212352802Y-47135328D01*
X212352806Y-47135335D01*
X212439052Y-47250544D01*
X212439055Y-47250547D01*
X212554264Y-47336793D01*
X212554271Y-47336797D01*
X212597151Y-47352790D01*
X212689117Y-47387091D01*
X212748727Y-47393500D01*
X213272100Y-47393499D01*
X213339139Y-47413183D01*
X213384894Y-47465987D01*
X213396100Y-47517499D01*
X213396100Y-50811100D01*
X213376415Y-50878139D01*
X213323611Y-50923894D01*
X213272100Y-50935100D01*
X212809598Y-50935100D01*
X212809580Y-50935101D01*
X212706803Y-50945600D01*
X212706800Y-50945601D01*
X212540268Y-51000785D01*
X212540263Y-51000787D01*
X212390942Y-51092889D01*
X212266889Y-51216942D01*
X212174787Y-51366263D01*
X212174786Y-51366266D01*
X212119601Y-51532803D01*
X212119601Y-51532804D01*
X212119600Y-51532804D01*
X212109100Y-51635583D01*
X212109100Y-52410601D01*
X212109101Y-52410619D01*
X212119600Y-52513396D01*
X212119601Y-52513399D01*
X212166077Y-52653653D01*
X212174786Y-52679934D01*
X212266888Y-52829256D01*
X212390944Y-52953312D01*
X212394228Y-52955337D01*
X212394253Y-52955353D01*
X212396045Y-52957346D01*
X212396611Y-52957793D01*
X212396534Y-52957889D01*
X212440979Y-53007299D01*
X212452203Y-53076261D01*
X212424361Y-53140344D01*
X212394265Y-53166426D01*
X212391260Y-53168279D01*
X212391255Y-53168283D01*
X212267284Y-53292254D01*
X212175243Y-53441475D01*
X212175241Y-53441480D01*
X212123343Y-53598100D01*
X213210600Y-53598100D01*
X213277639Y-53617785D01*
X213323394Y-53670589D01*
X213334600Y-53722100D01*
X213334600Y-54112235D01*
X213314915Y-54179274D01*
X213262111Y-54225029D01*
X213192953Y-54234973D01*
X213182183Y-54232262D01*
X213182035Y-54232893D01*
X213174483Y-54231108D01*
X213114883Y-54224701D01*
X213114881Y-54224700D01*
X213114873Y-54224700D01*
X213114864Y-54224700D01*
X211319129Y-54224700D01*
X211319123Y-54224701D01*
X211259516Y-54231108D01*
X211124671Y-54281402D01*
X211124664Y-54281406D01*
X211009455Y-54367652D01*
X211009452Y-54367655D01*
X210923206Y-54482864D01*
X210923202Y-54482871D01*
X210872908Y-54617717D01*
X210866501Y-54677316D01*
X210866500Y-54677335D01*
X210866500Y-56473070D01*
X210866501Y-56473076D01*
X210872908Y-56532683D01*
X210923202Y-56667528D01*
X210923206Y-56667535D01*
X211009452Y-56782744D01*
X211009455Y-56782747D01*
X211124664Y-56868993D01*
X211124671Y-56868997D01*
X211124674Y-56868998D01*
X211256598Y-56918202D01*
X211312531Y-56960073D01*
X211336949Y-57025537D01*
X211322098Y-57093810D01*
X211300947Y-57122065D01*
X211178886Y-57244126D01*
X211043402Y-57437617D01*
X211043400Y-57437621D01*
X210960594Y-57615199D01*
X210960594Y-57615200D01*
X212151174Y-57615200D01*
X212024007Y-57649275D01*
X211909993Y-57715101D01*
X211816901Y-57808193D01*
X211751075Y-57922207D01*
X211717000Y-58049374D01*
X211717000Y-58181026D01*
X211751075Y-58308193D01*
X211816901Y-58422207D01*
X211909993Y-58515299D01*
X212024007Y-58581125D01*
X212151174Y-58615200D01*
X210960593Y-58615200D01*
X211043398Y-58792776D01*
X211178894Y-58986282D01*
X211345917Y-59153305D01*
X211531595Y-59283319D01*
X211575219Y-59337896D01*
X211582412Y-59407395D01*
X211550890Y-59469749D01*
X211531595Y-59486469D01*
X211345594Y-59616708D01*
X211178505Y-59783797D01*
X211042965Y-59977369D01*
X211042964Y-59977371D01*
X210943098Y-60191535D01*
X210943094Y-60191544D01*
X210881938Y-60419786D01*
X210881936Y-60419796D01*
X210861341Y-60655199D01*
X210609300Y-60655199D01*
X210609300Y-40350100D01*
X210628985Y-40283061D01*
X210681789Y-40237306D01*
X210733300Y-40226100D01*
X222438300Y-40226100D01*
X222505339Y-40245785D01*
G37*
%TD.AperFunction*%
%TD*%
M02*
