%TF.GenerationSoftware,KiCad,Pcbnew,8.0.7*%
%TF.CreationDate,2024-12-17T11:32:19+05:30*%
%TF.ProjectId,SQR Wave Generator,53515220-5761-4766-9520-47656e657261,rev?*%
%TF.SameCoordinates,Original*%
%TF.FileFunction,Legend,Bot*%
%TF.FilePolarity,Positive*%
%FSLAX46Y46*%
G04 Gerber Fmt 4.6, Leading zero omitted, Abs format (unit mm)*
G04 Created by KiCad (PCBNEW 8.0.7) date 2024-12-17 11:32:19*
%MOMM*%
%LPD*%
G01*
G04 APERTURE LIST*
%ADD10C,0.150000*%
%ADD11C,0.120000*%
G04 APERTURE END LIST*
D10*
X219234633Y-55655380D02*
X219187014Y-55703000D01*
X219187014Y-55703000D02*
X219044157Y-55750619D01*
X219044157Y-55750619D02*
X218948919Y-55750619D01*
X218948919Y-55750619D02*
X218806062Y-55703000D01*
X218806062Y-55703000D02*
X218710824Y-55607761D01*
X218710824Y-55607761D02*
X218663205Y-55512523D01*
X218663205Y-55512523D02*
X218615586Y-55322047D01*
X218615586Y-55322047D02*
X218615586Y-55179190D01*
X218615586Y-55179190D02*
X218663205Y-54988714D01*
X218663205Y-54988714D02*
X218710824Y-54893476D01*
X218710824Y-54893476D02*
X218806062Y-54798238D01*
X218806062Y-54798238D02*
X218948919Y-54750619D01*
X218948919Y-54750619D02*
X219044157Y-54750619D01*
X219044157Y-54750619D02*
X219187014Y-54798238D01*
X219187014Y-54798238D02*
X219234633Y-54845857D01*
X220187014Y-55750619D02*
X219615586Y-55750619D01*
X219901300Y-55750619D02*
X219901300Y-54750619D01*
X219901300Y-54750619D02*
X219806062Y-54893476D01*
X219806062Y-54893476D02*
X219710824Y-54988714D01*
X219710824Y-54988714D02*
X219615586Y-55036333D01*
X215149133Y-52277180D02*
X215101514Y-52324800D01*
X215101514Y-52324800D02*
X214958657Y-52372419D01*
X214958657Y-52372419D02*
X214863419Y-52372419D01*
X214863419Y-52372419D02*
X214720562Y-52324800D01*
X214720562Y-52324800D02*
X214625324Y-52229561D01*
X214625324Y-52229561D02*
X214577705Y-52134323D01*
X214577705Y-52134323D02*
X214530086Y-51943847D01*
X214530086Y-51943847D02*
X214530086Y-51800990D01*
X214530086Y-51800990D02*
X214577705Y-51610514D01*
X214577705Y-51610514D02*
X214625324Y-51515276D01*
X214625324Y-51515276D02*
X214720562Y-51420038D01*
X214720562Y-51420038D02*
X214863419Y-51372419D01*
X214863419Y-51372419D02*
X214958657Y-51372419D01*
X214958657Y-51372419D02*
X215101514Y-51420038D01*
X215101514Y-51420038D02*
X215149133Y-51467657D01*
X215482467Y-51372419D02*
X216101514Y-51372419D01*
X216101514Y-51372419D02*
X215768181Y-51753371D01*
X215768181Y-51753371D02*
X215911038Y-51753371D01*
X215911038Y-51753371D02*
X216006276Y-51800990D01*
X216006276Y-51800990D02*
X216053895Y-51848609D01*
X216053895Y-51848609D02*
X216101514Y-51943847D01*
X216101514Y-51943847D02*
X216101514Y-52181942D01*
X216101514Y-52181942D02*
X216053895Y-52277180D01*
X216053895Y-52277180D02*
X216006276Y-52324800D01*
X216006276Y-52324800D02*
X215911038Y-52372419D01*
X215911038Y-52372419D02*
X215625324Y-52372419D01*
X215625324Y-52372419D02*
X215530086Y-52324800D01*
X215530086Y-52324800D02*
X215482467Y-52277180D01*
X210918466Y-50839019D02*
X210918466Y-51553304D01*
X210918466Y-51553304D02*
X210870847Y-51696161D01*
X210870847Y-51696161D02*
X210775609Y-51791400D01*
X210775609Y-51791400D02*
X210632752Y-51839019D01*
X210632752Y-51839019D02*
X210537514Y-51839019D01*
X211918466Y-51839019D02*
X211347038Y-51839019D01*
X211632752Y-51839019D02*
X211632752Y-50839019D01*
X211632752Y-50839019D02*
X211537514Y-50981876D01*
X211537514Y-50981876D02*
X211442276Y-51077114D01*
X211442276Y-51077114D02*
X211347038Y-51124733D01*
X219162333Y-52230280D02*
X219114714Y-52277900D01*
X219114714Y-52277900D02*
X218971857Y-52325519D01*
X218971857Y-52325519D02*
X218876619Y-52325519D01*
X218876619Y-52325519D02*
X218733762Y-52277900D01*
X218733762Y-52277900D02*
X218638524Y-52182661D01*
X218638524Y-52182661D02*
X218590905Y-52087423D01*
X218590905Y-52087423D02*
X218543286Y-51896947D01*
X218543286Y-51896947D02*
X218543286Y-51754090D01*
X218543286Y-51754090D02*
X218590905Y-51563614D01*
X218590905Y-51563614D02*
X218638524Y-51468376D01*
X218638524Y-51468376D02*
X218733762Y-51373138D01*
X218733762Y-51373138D02*
X218876619Y-51325519D01*
X218876619Y-51325519D02*
X218971857Y-51325519D01*
X218971857Y-51325519D02*
X219114714Y-51373138D01*
X219114714Y-51373138D02*
X219162333Y-51420757D01*
X219543286Y-51420757D02*
X219590905Y-51373138D01*
X219590905Y-51373138D02*
X219686143Y-51325519D01*
X219686143Y-51325519D02*
X219924238Y-51325519D01*
X219924238Y-51325519D02*
X220019476Y-51373138D01*
X220019476Y-51373138D02*
X220067095Y-51420757D01*
X220067095Y-51420757D02*
X220114714Y-51515995D01*
X220114714Y-51515995D02*
X220114714Y-51611233D01*
X220114714Y-51611233D02*
X220067095Y-51754090D01*
X220067095Y-51754090D02*
X219495667Y-52325519D01*
X219495667Y-52325519D02*
X220114714Y-52325519D01*
D11*
%TO.C,C1*%
X220206848Y-52859000D02*
X220729352Y-52859000D01*
X220206848Y-54329000D02*
X220729352Y-54329000D01*
%TO.C,C3*%
X212599600Y-52799348D02*
X212599600Y-53321852D01*
X214069600Y-52799348D02*
X214069600Y-53321852D01*
%TO.C,J1*%
X211256600Y-49753000D02*
X211256600Y-50493000D01*
X211256600Y-50493000D02*
X211756600Y-50493000D01*
X211496600Y-40332000D02*
X211496600Y-50253000D01*
X211496600Y-40332000D02*
X221776600Y-40332000D01*
X211496600Y-43292000D02*
X221776600Y-43292000D01*
X211496600Y-48193000D02*
X221776600Y-48193000D01*
X211496600Y-49693000D02*
X221776600Y-49693000D01*
X211496600Y-50253000D02*
X221776600Y-50253000D01*
X221776600Y-40332000D02*
X221776600Y-50253000D01*
%TO.C,C2*%
X216562000Y-52799348D02*
X216562000Y-53321852D01*
X218032000Y-52799348D02*
X218032000Y-53321852D01*
%TD*%
M02*
